<?xml version="1.0" encoding="utf-8"?>
<!-- Generator: Adobe Illustrator 16.0.0, SVG Export Plug-In . SVG Version: 6.00 Build 0)  -->
<!DOCTYPE svg PUBLIC "-//W3C//DTD SVG 1.1//EN" "http://www.w3.org/Graphics/SVG/1.1/DTD/svg11.dtd">
<svg version="1.1" id="Layer_1" xmlns="http://www.w3.org/2000/svg" xmlns:xlink="http://www.w3.org/1999/xlink" x="0px" y="0px"
	 width="62.25px" height="50px" viewBox="67.5 0 62.25 50" enable-background="new 67.5 0 62.25 50" xml:space="preserve">
<path fill="#E9DC68" d="M120.122,5.1c-10.712-0.256-8.479,7.042-8.479,7.042S120.432,13.996,120.122,5.1z"/>
<path fill="#E9DC68" d="M119.504,15.136c-8.812-5.069-11.73,2.062-11.73,2.062S113.922,22.734,119.504,15.136z"/>
<path fill="#E9DC68" d="M107.969,5.553c6.1,7.32-2.484,9.744-2.484,9.744S98.82,10.191,107.969,5.553z"/>
<path fill="#E9DC68" d="M112.762,21.162c-9.193-5.285-12.238,2.153-12.238,2.153S106.938,29.094,112.762,21.162z"/>
<path fill="#E9DC68" d="M100.729,11.168c6.362,7.635-2.592,10.165-2.592,10.165S91.184,16.003,100.729,11.168z"/>
<path fill="#E9DC68" d="M105.941,27.166c-9.492-5.462-12.639,2.225-12.639,2.225S99.926,35.35,105.941,27.166z"/>
<path fill="#E9DC68" d="M93.514,16.841c6.572,7.887-2.677,10.498-2.677,10.498S83.656,21.839,93.514,16.841z"/>
<path fill="#E9DC68" d="M98.326,33.781c-9.75-5.613-12.981,2.277-12.981,2.277S92.149,42.186,98.326,33.781z"/>
<path fill="#E9DC68" d="M85.562,23.175c6.75,8.103-2.749,10.783-2.749,10.783S75.439,28.309,85.562,23.175z"/>
<polygon fill="#E9DC68" points="81.384,35.622 83.378,37.281 73.971,45.094 71.978,43.436 "/>
</svg>
