<?xml version="1.0" encoding="utf-8"?>
<!-- Generator: Adobe Illustrator 16.0.0, SVG Export Plug-In . SVG Version: 6.00 Build 0)  -->
<!DOCTYPE svg PUBLIC "-//W3C//DTD SVG 1.1//EN" "http://www.w3.org/Graphics/SVG/1.1/DTD/svg11.dtd">
<svg version="1.1" id="Layer_1" xmlns="http://www.w3.org/2000/svg" xmlns:xlink="http://www.w3.org/1999/xlink" x="0px" y="0px"
	 width="53px" height="50px" viewBox="69.5 0 53 50" enable-background="new 69.5 0 53 50" xml:space="preserve">
<g>
	<g>
		<path fill="#E55C4C" d="M82.479,44.041h28.83 M112.471,44.166c0.617,0,1.162-0.5,1.162-1.119V26.1
			c0.465,0.105,0.643,0.166,0.979,0.166c1.953,0,3.408-2.014,3.509-3.333l0.055-0.623h-0.048c0.003,0,0.007-0.116-0.014-0.18
			c-0.028-0.095-0.088-0.16-0.155-0.222L113.09,5.962c-0.07-0.234-0.288-0.391-0.533-0.391H81.232c-0.247,0-0.464,0.162-0.536,0.399
			l-4.795,15.899c-0.112,0.075-0.199,0.168-0.239,0.301c-0.015,0.054-0.009,0.14-0.009,0.14h-0.041l0.046,0.623
			c0.099,1.319,1.564,3.323,3.517,3.323c0.337,0,0.514-0.052,0.979-0.156v16.947c0,0.619,0.546,1.119,1.163,1.119 M106.307,22.31
			l-2.101-15.809h3.354l3.496,15.809H106.307z M94.525,22.31L95.22,6.501h3.223l0.662,15.809H94.525z M82.762,22.31l3.459-15.809
			h3.375l-2.14,15.809H82.762z M82.479,36.262V24.778c0.465,0.82,1.522,1.49,2.653,1.49c1.286,0,2.317-0.869,2.925-1.834
			c0.606,0.966,1.654,1.834,2.94,1.834s2.342-0.869,2.948-1.834c0.606,0.966,1.666,1.834,2.954,1.834
			c1.285,0,2.349-0.869,2.955-1.834c0.605,0.966,1.668,1.834,2.953,1.834c1.287,0,2.351-0.869,2.957-1.834
			c0.606,0.966,1.604,1.834,2.891,1.834c1.133,0,2.188-0.67,2.652-1.49V36.26H82.479V36.262z"/>
	</g>
</g>
</svg>
