<?xml version="1.0" encoding="utf-8"?>
<!-- Generator: Adobe Illustrator 16.0.0, SVG Export Plug-In . SVG Version: 6.00 Build 0)  -->
<!DOCTYPE svg PUBLIC "-//W3C//DTD SVG 1.1//EN" "http://www.w3.org/Graphics/SVG/1.1/DTD/svg11.dtd">
<svg version="1.1" id="Layer_1" xmlns="http://www.w3.org/2000/svg" xmlns:xlink="http://www.w3.org/1999/xlink" x="0px" y="0px"
	 width="50px" height="50px" viewBox="70.5 0 50 50" enable-background="new 70.5 0 50 50" xml:space="preserve">
<path fill="#50EFBB" d="M112.113,26.921c0,5.503-4.473,9.938-9.939,9.938c-0.537,0-1.029-0.045-1.568-0.139
	c-0.039,0-0.129-0.043-0.176-0.043l0,0c-0.047,0-0.092,0-0.131,0c-0.854,0-1.521,0.674-1.521,1.522c0,0.043,0,0.043,0,0.089
	c0,0.047,0,0.047,0,0.093l0.398,5.416c0,0.496-0.398,0.896-0.895,0.896h-5.059c-0.492,0-0.896-0.398-0.896-0.896l0.404-5.332
	c0-0.084,0-0.13,0-0.223l0,0c0-0.845-0.673-1.522-1.523-1.522c-0.091,0-0.181,0-0.227,0c-0.535,0.094-1.072,0.139-1.657,0.139
	c-5.505,0-9.94-4.48-9.94-9.938c0-2.688,1.03-5.106,2.734-6.854l0.045-0.042c0.267-0.269,0.4-0.629,0.4-1.03
	c0-0.093,0-0.227-0.042-0.315c0-0.045,0-0.045,0-0.088c-0.135-0.719-0.226-1.48-0.226-2.242c0-5.866,4.746-10.655,10.658-10.655
	c3.045,0,5.778,1.299,7.745,3.313c0,0.046,0.047,0.046,0.094,0.088l0,0c0.27,0.269,0.669,0.45,1.07,0.45c0.09,0,0.183,0,0.268-0.046
	c0.045,0,0.139-0.044,0.184-0.044l0,0c0.578-0.133,1.162-0.225,1.793-0.225c4.383,0,7.963,3.583,7.963,7.973
	c0,1.341-0.307,2.594-0.938,3.716c0,0.043-0.047,0.089-0.047,0.089c-0.085,0.177-0.13,0.446-0.13,0.672
	c0,0.224,0.045,0.446,0.13,0.669l0,0C111.762,23.784,112.113,25.306,112.113,26.921z"/>
</svg>
