<?xml version="1.0" encoding="utf-8"?>
<!-- Generator: Adobe Illustrator 16.0.0, SVG Export Plug-In . SVG Version: 6.00 Build 0)  -->
<!DOCTYPE svg PUBLIC "-//W3C//DTD SVG 1.1//EN" "http://www.w3.org/Graphics/SVG/1.1/DTD/svg11.dtd">
<svg version="1.1" id="Layer_1" xmlns="http://www.w3.org/2000/svg" xmlns:xlink="http://www.w3.org/1999/xlink" x="0px" y="0px"
	 width="78px" height="50px" viewBox="57.5 0 78 50" enable-background="new 57.5 0 78 50" xml:space="preserve">
<path fill="#634A81" d="M96,5L62.07,19.287L96,33.574l19.643-7.949c0,0,0,7.207,0,10.801c0,5.717,7.145,5.717,7.145,5.717v-2.858
	c0,0-3.571-0.162-3.571-2.856c0-4.287,0-12.412,0-12.412l10.716-4.728L96,5z"/>
<path fill="#634A81" d="M79.928,30.717v5.709c0,1.422,1.161,3.32,3.571,4.291L96,45l10.715-4.283
	c2.41-0.971,5.525-2.879,5.357-4.291v-5.709L96,36.967L79.928,30.717z"/>
</svg>
