<?xml version="1.0" encoding="utf-8"?>
<!-- Generator: Adobe Illustrator 16.0.0, SVG Export Plug-In . SVG Version: 6.00 Build 0)  -->
<!DOCTYPE svg PUBLIC "-//W3C//DTD SVG 1.1//EN" "http://www.w3.org/Graphics/SVG/1.1/DTD/svg11.dtd">
<svg version="1.1" id="Layer_1" xmlns="http://www.w3.org/2000/svg" xmlns:xlink="http://www.w3.org/1999/xlink" x="0px" y="0px"
	 width="63.75px" height="50px" viewBox="64.5 0 63.75 50" enable-background="new 64.5 0 63.75 50" xml:space="preserve">
<g>
	<path fill="#474747" d="M70.928,24.872V40c0,0.5,0.43,0.938,1.075,0.938h2.294h18.351h12.761c0.359,0,0.717-0.252,0.717-0.623
		V28.501c0-0.313,0.287-0.504,0.572-0.504h8.46c0.356,0,0.573,0.255,0.573,0.504v11.874c0,0.311,0.287,0.625,0.717,0.625h4.302
		c0.571,0,1.073-0.372,1.073-0.936v-1.875V23.938v-4.687c0-0.815-1.073-1.253-1.791-0.753l-5.09,3.688
		c-0.717,0.504-1.791,0.065-1.791-0.75v-2.185c0-0.815-1.075-1.253-1.793-0.753l-5.088,3.629c-0.719,0.497-1.793,0.059-1.793-0.751
		v-2.188c0-0.815-1.076-1.252-1.793-0.752l-7.24,5.187c-0.215,0.191-0.43,0.248-0.718,0.248h-3.583
		c-0.357,0-0.645-0.248-0.717-0.562L88.562,9.562C88.491,9.248,88.205,9,87.917,9h-9.032c-0.358,0-0.574,0.248-0.646,0.562
		l-1.863,13.747c0,0.314-0.359,0.562-0.717,0.562h-3.656C71.432,23.871,70.928,24.31,70.928,24.872z M96.232,29.625
		c0-0.373,0.358-0.686,0.789-0.686h4.301c0.432,0,0.791,0.312,0.791,0.686v3.623c0,0.38-0.359,0.691-0.791,0.691h-4.301
		c-0.431,0-0.789-0.312-0.789-0.691V29.625z M85.122,29.625c0-0.373,0.357-0.686,0.788-0.686h4.3c0.431,0,0.789,0.312,0.789,0.686
		v3.623c0,0.38-0.358,0.691-0.789,0.691h-4.3c-0.431,0-0.788-0.312-0.788-0.691V29.625z M74.011,29.625
		c0-0.373,0.356-0.686,0.788-0.686h4.3c0.431,0,0.789,0.312,0.789,0.686v3.623c0,0.38-0.358,0.691-0.789,0.691h-4.3
		c-0.432,0-0.788-0.312-0.788-0.691V29.625z"/>
</g>
</svg>
