<?xml version="1.0" encoding="utf-8"?>
<!-- Generator: Adobe Illustrator 16.0.0, SVG Export Plug-In . SVG Version: 6.00 Build 0)  -->
<!DOCTYPE svg PUBLIC "-//W3C//DTD SVG 1.1//EN" "http://www.w3.org/Graphics/SVG/1.1/DTD/svg11.dtd">
<svg version="1.1" id="Layer_1" xmlns="http://www.w3.org/2000/svg" xmlns:xlink="http://www.w3.org/1999/xlink" x="0px" y="0px"
	 width="51px" height="50px" viewBox="71.5 0 51 50" enable-background="new 71.5 0 51 50" xml:space="preserve">
<path fill="#A85EB6" d="M105.99,5.088H86.045c-3.887,0-7.04,2.412-7.04,5.391v22.57c0,2.979,3.152,5.391,7.04,5.391h19.946
	c3.887,0,7.038-2.41,7.038-5.391v-22.57C113.029,7.5,109.878,5.088,105.99,5.088z M86.015,33.686c-1.965,0-3.557-1.297-3.557-2.896
	s1.592-2.894,3.557-2.894c1.964,0,3.557,1.295,3.557,2.894S87.979,33.686,86.015,33.686z M105.387,33.686
	c-1.965,0-3.558-1.297-3.558-2.896s1.593-2.894,3.558-2.894s3.557,1.295,3.557,2.894S107.352,33.686,105.387,33.686z
	 M108.943,21.471c0,0.794-0.787,1.434-1.76,1.434H84.219c-0.973,0-1.76-0.64-1.76-1.434V11.448c0-0.79,0.788-1.429,1.76-1.429
	h22.964c0.974,0,1.76,0.64,1.76,1.429V21.471L108.943,21.471z"/>
<polygon fill="#A85EB6" points="82.458,45.088 87.177,41.079 91.686,41.079 89.572,45.088 "/>
<polygon fill="#A85EB6" points="102.814,45.088 99.716,41.079 104.365,41.079 108.943,45.088 "/>
</svg>
