<?xml version="1.0" encoding="utf-8"?>
<!-- Generator: Adobe Illustrator 16.0.0, SVG Export Plug-In . SVG Version: 6.00 Build 0)  -->
<!DOCTYPE svg PUBLIC "-//W3C//DTD SVG 1.1//EN" "http://www.w3.org/Graphics/SVG/1.1/DTD/svg11.dtd">
<svg version="1.1" id="Layer_1" xmlns="http://www.w3.org/2000/svg" xmlns:xlink="http://www.w3.org/1999/xlink" x="0px" y="0px"
	 width="59.25px" height="50px" viewBox="66.5 0 59.25 50" enable-background="new 66.5 0 59.25 50" xml:space="preserve">
<g>
	<path fill="#3196DE" d="M71.316,10.563c0.513-0.777,1.235-1.037,2.987-1.037c1.751,0,2.984,0.17,5.146,1.211
		c3.295,1.56,6.589,3.205,9.985,4.851c7.105-3.465,14.205-6.929,21.41-10.394c0.723-0.26,1.547-0.26,2.162,0
		c0.723,0.346,1.447,0.693,2.27,1.125c1.029,0.519,1.336,1.385,0.719,2.253c-0.102,0.172-0.516,0.435-0.719,0.604
		c-4.018,3.12-8.028,6.236-12.047,9.442c-0.615,0.864-1.231,1.82-1.955,2.771c2.679,1.295,5.352,2.597,8.131,3.892
		c0.621,0.44,1.031,0.786,1.547,1.221c0.41,0.342,0.822,0.775,1.234,1.21c1.44-0.868,2.883-1.821,4.428-2.773
		c0.72-0.518,1.75-0.606,2.574-0.174c0.205,0.088,0.517,0.263,0.82,0.434c1.031,0.435,1.236,1.215,0.721,2.081
		c-0.514,0.689-1.024,1.472-1.541,2.25c-0.723,1.037-1.439,2.08-2.264,3.205c-0.723,1.039-1.445,2.08-2.162,3.207
		c-0.516,0.689-1.031,1.465-1.548,2.248c-0.616,0.865-1.54,1.041-2.571,0.52c-0.207-0.088-0.516-0.174-0.824-0.346
		c-0.821-0.434-1.237-1.211-1.03-1.99c0.208-1.559,0.415-3.116,0.616-4.678c-0.616,0-1.334,0-1.955-0.178
		c-0.616-0.172-1.233-0.342-1.952-0.602c-2.677-1.301-5.354-2.6-8.033-3.9c-0.614,0.867-1.231,1.822-1.955,2.771
		c-1.236,4.505-2.471,9.011-3.704,13.512c0,0.173-0.106,0.606-0.207,0.865c-0.616,0.864-1.647,1.04-2.678,0.61
		c-0.72-0.35-1.44-0.693-2.263-1.129c-0.617-0.348-1.031-0.951-1.132-1.559v-20.87c-3.295-1.56-6.589-3.206-9.988-4.851
		c-2.16-1.037-2.883-1.816-3.808-3.114C70.904,11.949,70.798,11.344,71.316,10.563"/>
</g>
</svg>
