<?xml version="1.0" encoding="UTF-8" standalone="no"?>
<svg width="984px" height="1080px" viewBox="0 0 984 1080" version="1.1" xmlns="http://www.w3.org/2000/svg" xmlns:xlink="http://www.w3.org/1999/xlink">
    <!-- Generator: Sketch 3.6.1 (26313) - http://www.bohemiancoding.com/sketch -->
    <title>medal</title>
    <desc>Created with Sketch.</desc>
    <defs></defs>
    <g id="Page-1" stroke="none" stroke-width="1" fill="none" fill-rule="evenodd">
        <g id="Artboard-72" transform="translate(-1893.000000, -1940.000000)">
            <g id="medal" transform="translate(1785.000000, 1874.000000)">
                <g id="Group">
                    <rect id="Rectangle-1005" x="0" y="0" width="1200" height="1200"></rect>
                    <path d="M777.48,1069.716 C804.468,1050.072 851.088,1049.1 870.732,1022.1 C890.184,995.364 876.84,950.844 887.256,918.732 C897.336,887.76 934.62,859.728 934.62,825.396 C934.62,791.076 897.336,763.044 887.256,732.072 C876.84,699.948 890.184,655.428 870.732,628.716 C851.088,601.716 804.48,600.744 777.492,581.088 C750.744,561.636 735.54,517.5 703.428,507.084 C698.472,505.476 693.336,504.804 688.068,504.804 C660.348,504.804 628.848,523.452 600,523.452 C571.164,523.452 539.652,504.804 511.92,504.804 C506.652,504.804 501.528,505.488 496.572,507.084 C464.46,517.5 449.256,561.636 422.52,581.088 C395.532,600.732 348.912,601.704 329.268,628.704 C309.816,655.44 323.172,699.96 312.744,732.072 C302.676,763.044 265.38,791.076 265.38,825.396 C265.38,859.728 302.676,887.76 312.744,918.732 C323.172,950.856 309.816,995.376 329.268,1022.1 C348.912,1049.088 395.52,1050.06 422.508,1069.704 C449.256,1089.156 464.46,1133.292 496.572,1143.72 C501.528,1145.316 506.664,1146 511.92,1146 C539.652,1146 571.164,1127.352 600,1127.352 C628.848,1127.352 660.348,1146 688.068,1146 C693.336,1146 698.472,1145.316 703.428,1143.72 C735.54,1133.28 750.756,1089.156 777.48,1069.716 L777.48,1069.716 Z M600,1101.828 C447.324,1101.828 323.556,978.072 323.556,825.384 C323.556,672.708 447.324,548.952 600,548.952 C752.676,548.952 876.444,672.72 876.444,825.384 C876.444,978.072 752.676,1101.828 600,1101.828 L600,1101.828 Z" id="Shape" fill="#4C478B"></path>
                    <path d="M767.436,774.42 C765.78,769.332 761.04,765.888 755.688,765.888 L645.72,765.888 L611.736,661.296 C610.08,656.208 605.34,652.764 599.988,652.764 C594.636,652.764 589.896,656.208 588.24,661.296 L554.256,765.888 L444.288,765.888 C438.948,765.888 434.208,769.332 432.54,774.42 C430.884,779.508 432.708,785.076 437.016,788.22 L525.984,852.852 L492.012,957.444 C490.356,962.532 492.168,968.1 496.5,971.244 C500.832,974.388 506.676,974.388 511.008,971.244 L600,906.624 L688.968,971.256 C691.128,972.828 693.684,973.608 696.216,973.608 C698.748,973.608 701.316,972.828 703.464,971.256 C707.796,968.1 709.608,962.532 707.964,957.456 L673.98,852.864 L762.948,788.232 C767.268,785.076 769.092,779.508 767.436,774.42 L767.436,774.42 Z" id="Shape" fill="#4C478B"></path>
                    <path d="M724.644,314.016 L863.652,66 L336.348,66 L475.356,314.016 L724.644,314.016 Z" id="Shape" fill="#4C478B"></path>
                    <path d="M688.08,480.096 C696.192,480.096 703.92,481.272 711.048,483.576 C737.34,492.12 753.612,514.128 767.94,533.544 C776.196,544.716 783.984,555.264 792.024,561.108 C800.256,567.108 812.832,571.332 826.152,575.808 C843.192,581.544 861.936,587.844 877.02,599.928 L1085.676,227.64 C1085.676,227.64 1094.58,210.072 1091.16,195.144 C1087.836,180.696 1068.192,170.64 1068.192,170.64 L889.464,70.464 L657.36,484.584 C667.368,481.98 677.604,480.096 688.08,480.096 L688.08,480.096 Z" id="Shape" fill="#4C478B"></path>
                    <path d="M511.92,480.096 C503.808,480.096 496.08,481.272 488.952,483.576 C462.66,492.12 446.388,514.128 432.06,533.544 C423.816,544.716 416.016,555.264 407.976,561.108 C399.744,567.108 387.168,571.332 373.848,575.808 C356.808,581.544 338.064,587.844 322.98,599.928 L114.324,227.628 C114.324,227.628 105.42,210.06 108.84,195.132 C112.164,180.684 131.808,170.628 131.808,170.628 L310.536,70.464 L542.64,484.584 C532.632,481.98 522.396,480.096 511.92,480.096 L511.92,480.096 Z" id="Shape" fill="#4C478B"></path>
                </g>
            </g>
        </g>
    </g>
</svg>