<?xml version="1.0" encoding="UTF-8" standalone="no"?>
<svg width="523px" height="986px" viewBox="0 0 523 986" version="1.1" xmlns="http://www.w3.org/2000/svg" xmlns:xlink="http://www.w3.org/1999/xlink">
    <!-- Generator: Sketch 3.6.1 (26313) - http://www.bohemiancoding.com/sketch -->
    <title>nomoney</title>
    <desc>Created with Sketch.</desc>
    <defs></defs>
    <g id="Page-1" stroke="none" stroke-width="1" fill="none" fill-rule="evenodd">
        <g id="Artboard-72" transform="translate(-2123.000000, -3410.000000)">
            <g id="nomoney" transform="translate(1785.000000, 3303.000000)">
                <g>
                    <rect id="Rectangle-1007" x="0" y="0" width="1200" height="1200"></rect>
                    <path d="M599.153659,107.669382 C650.122195,107.643092 689.164146,146.577803 689.22939,197.513658 C689.294634,247.227053 648.608537,287.725987 598.840488,287.463092 C550.338171,287.200197 509.939146,246.10975 510.095732,197.171895 C510.252317,147.576803 549.933659,107.695671 599.153659,107.669382 L599.153659,107.669382 Z" id="Shape" fill="#4C478B"></path>
                    <path d="M843.374634,401.743434 C822.44439,388.322658 801.631585,374.717855 780.531707,361.546829 C757.317927,347.021895 733.973659,332.667842 710.42061,318.655553 C707.484634,316.933592 695.701585,309.04675 690.93878,309.04675 L511.844268,309.04675 C507.407683,309.04675 490.861829,316.578684 482.340976,321.876013 C439.671463,348.402092 397.289024,375.401382 354.984878,402.518974 C342.366707,410.589842 334.968049,422.880171 339.600366,437.799447 C355.102317,487.986053 371.556829,537.857184 387.985244,587.728316 C393.035122,603.081368 405.509756,616.751895 420.424512,610.24525 C459.244634,593.314829 464.177073,646.445855 480.527195,660.865632 C490.470366,669.646316 492.975732,679.149961 492.936585,691.637461 C492.610366,803.696342 492.740854,915.768368 492.766951,1027.81411 C492.766951,1034.96484 492.610366,1042.20759 493.41939,1049.27946 C495.794268,1069.98242 510.943902,1085.84812 532.513537,1090.8957 C549.959756,1094.93113 572.495,1086.88655 581.250732,1070.24532 C586.926951,1059.46663 590.58061,1046.21674 590.645854,1034.04471 C591.337439,922.984829 591.050366,867.159132 591.050366,756.09925 L591.050366,737.854355 L609.162073,737.854355 L609.162073,755.297421 C609.162073,811.609474 609.175122,812.713632 609.162073,869.012539 C609.135976,926.336737 609.057683,983.647789 609.08378,1040.95884 C609.109878,1063.29175 619.822927,1078.94713 639.722317,1087.85926 C659.80439,1096.86341 677.368049,1090.77739 692.817805,1076.63366 C705.109756,1065.36862 707.484634,1050.38362 707.484634,1034.6888 C707.510732,918.528763 707.341098,802.368724 707.915244,686.234974 C707.967439,678.611026 711.882073,669.409711 717.010244,663.704895 C731.964146,647.103092 751.82439,598.467566 780.349024,610.389842 C794.102439,616.134092 806.120366,603.462566 810.830976,589.331974 C827.25939,540.012921 843.479024,490.575566 858.954878,440.91475 C864.39622,423.43225 858.693902,411.562553 843.374634,401.743434 L843.374634,401.743434 Z M491.788293,610.941921 C477.813049,604.790184 465.142683,599.348263 452.602805,593.577724 C451.089146,592.867908 449.392805,590.475566 449.405854,588.858763 C449.627683,552.737026 432.050976,521.399974 422.721098,487.841461 C418.780366,473.671434 414.056707,459.724868 409.254756,444.292947 C437.074756,426.902461 463.602927,410.287513 491.788293,392.647276 L491.788293,610.941921 L491.788293,610.941921 Z M787.565,452.955329 C777.165122,487.079066 765.943171,520.939908 755.634634,555.089934 C752.750854,564.646158 752.346341,574.925342 750.245488,584.757605 C749.514756,588.162092 747.909756,592.815329 745.313049,594.142947 C733.764878,600.084368 721.681707,605.013645 707.85,611.191671 L707.85,392.686711 C735.200244,409.682855 760.501829,425.141066 785.359756,441.348526 C787.695488,442.847026 788.608902,449.498263 787.565,452.955329 L787.565,452.955329 Z" id="Shape" fill="#4C478B"></path>
                </g>
            </g>
        </g>
    </g>
</svg>