<?xml version="1.0" encoding="utf-8"?>
<!-- Generator: Adobe Illustrator 16.0.0, SVG Export Plug-In . SVG Version: 6.00 Build 0)  -->
<!DOCTYPE svg PUBLIC "-//W3C//DTD SVG 1.1//EN" "http://www.w3.org/Graphics/SVG/1.1/DTD/svg11.dtd">
<svg version="1.1" id="Layer_1" xmlns="http://www.w3.org/2000/svg" xmlns:xlink="http://www.w3.org/1999/xlink" x="0px" y="0px"
	 width="529px" height="457px" viewBox="149.445 78.14 529 457" enable-background="new 149.445 78.14 529 457"
	 xml:space="preserve">
<g>
	<path fill="none" d="M380.662,156.177c-26.758,8.418-42.122,20.823-42.765,21.347l12.399,15.168
		c0.523-0.429,53.724-42.818,135.837-15.328l6.221-18.579C444.31,142.701,405.099,148.493,380.662,156.177z"/>
	<circle fill="none" cx="557.656" cy="235.826" r="17.126"/>
	<path fill="none" d="M230.056,189.138c1.013-14.722-21.519-28.341-27.466-2.977c-0.893,3.804,0.054,12.09,5.619,20.71
		C219.55,201.092,229.687,194.472,230.056,189.138z"/>
	<path fill="#4C498B" d="M644.162,249.261h-15.37c-0.012,0-0.018,0-0.029,0c-10.221-31.204-30.104-58.831-56.629-80.256
		c-0.03-1.006-0.179-2.035-0.477-3.083c-5.554-19.537,1.31-37.413,9.334-50.212c5.626-8.977-1.654-20.418-12.167-19.108
		c-35.461,4.411-54.397,21.876-64.213,36.437c-21.222-6.715-44.104-10.381-67.976-10.381c-83.821,0-155.576,45.157-185.251,109.186
		c-18.668-3.393-30.627-10.638-38.062-18.489c12.287-5.369,23.098-12.864,26.598-20.013c7.28-14.877-3.125-24.413-3.125-24.413
		s-30.002-29.3-43.146,14.478c-3.167,10.554-1.548,20.316,2.732,29.062c-10.613,4.709-19.62,7.982-19.62,7.982
		c6.137,1.161,14.376,0.161,22.9-2.214c11.34,17.453,32.413,30.127,43.349,35.871c-4.055,13.882-6.209,28.425-6.209,43.414
		c0,12.465,1.5,24.621,4.333,36.342l-0.012-0.006c0,0,0.048,0.185,0.144,0.536c2.981,12.161,7.398,23.853,13.107,34.931
		c7.536,16.257,18.52,35.3,33.521,50.748c21.781,22.418,25.49,50.229,26.02,62.194v5.161c0,0.227,0.018,0.446,0.036,0.667
		c-0.006,0.077-0.006,0.113-0.006,0.113l0.012-0.013c0.398,5.911,5.304,10.585,11.316,10.585h69.261
		c6.269,0,11.352-5.084,11.352-11.353v-17.108c10.024,1.357,20.293,2.06,30.752,2.06c8.167,0,16.216-0.44,24.127-1.273v16.316
		c0,6.269,5.084,11.352,11.352,11.352h69.262c6.268,0,11.352-5.083,11.352-11.352v-17.114c0.137-5.69,2.077-28.288,23.4-47.604
		c0.905-0.774,1.81-1.554,2.696-2.346c0.119-0.101,0.232-0.202,0.352-0.298l-0.035,0.019c23.781-21.168,41.449-47.617,50.503-77.148
		h14.507c11.584,0,20.972-9.388,20.972-20.972v-51.73C665.135,258.649,655.74,249.261,644.162,249.261z M208.209,206.872
		c-5.565-8.62-6.512-16.906-5.619-20.71c5.947-25.364,28.479-11.745,27.466,2.977C229.687,194.472,219.55,201.092,208.209,206.872z
		 M461.079,353.427c-6.104,5.879-14.441,9.352-25.016,10.42v16.621h-13.416v-16.621c-10.799-0.957-19.673-4.541-26.619-10.758
		c-6.948-6.215-10.308-15.34-10.083-27.379l0.253-0.506h23.962c0,7.201,1.757,12.334,5.273,15.398
		c3.515,3.066,8.085,4.598,13.71,4.598c5.512,0,9.646-1.35,12.404-4.049c2.754-2.701,4.133-6.385,4.133-11.053
		c0-4.611-1.322-8.311-3.965-11.096c-2.645-2.783-7.34-5.469-14.09-8.057c-12.713-4.275-22.135-9.252-28.265-14.935
		c-6.131-5.681-9.197-13.668-9.197-23.961c0-9.505,3.065-17.282,9.197-23.329c6.13-6.046,14.456-9.604,24.974-10.673v-18.056h13.416
		v18.309c10.123,1.407,18.055,5.357,23.793,11.854c5.736,6.497,8.521,14.949,8.352,25.354l-0.168,0.422h-24.047
		c0-6.13-1.393-10.842-4.176-14.132c-2.785-3.291-6.68-4.936-11.686-4.936c-5.287,0-9.112,1.379-11.475,4.134
		c-2.363,2.756-3.544,6.469-3.544,11.137c0,4.332,1.251,7.792,3.755,10.378c2.502,2.588,7.299,5.372,14.385,8.353
		c12.488,4.05,21.824,9.015,28.012,14.892c6.188,5.879,9.281,13.936,9.281,24.172C470.234,339.717,467.181,347.551,461.079,353.427z
		 M486.134,177.364c-82.113-27.49-135.313,14.899-135.837,15.328l-12.399-15.168c0.643-0.523,16.007-12.929,42.765-21.347
		c24.437-7.685,63.647-13.477,111.692,2.607L486.134,177.364z M557.656,252.953c-9.459,0-17.126-7.668-17.126-17.127
		s7.667-17.126,17.126-17.126s17.126,7.667,17.126,17.126S567.115,252.953,557.656,252.953z"/>
</g>
</svg>
