<?xml version="1.0" encoding="UTF-8" standalone="no"?>
<svg width="911px" height="788px" viewBox="0 0 911 788" version="1.1" xmlns="http://www.w3.org/2000/svg" xmlns:xlink="http://www.w3.org/1999/xlink">
    <!-- Generator: Sketch 3.6.1 (26313) - http://www.bohemiancoding.com/sketch -->
    <title>protest</title>
    <desc>Created with Sketch.</desc>
    <defs></defs>
    <g id="Page-1" stroke="none" stroke-width="1" fill="none" fill-rule="evenodd">
        <g id="Artboard-72" transform="translate(-1929.000000, -798.000000)">
            <g id="protest" transform="translate(1785.000000, 592.000000)">
                <g id="Group">
                    <rect id="Rectangle-1005" x="0" y="0" width="1200" height="1200"></rect>
                    <path d="M1041.78114,677.001061 C1040.90742,676.869394 1040.06961,676.821515 1039.2677,676.797576 L1039.2677,637.381364 L1029.48924,637.381364 L1029.48924,680.089242 C1026.61674,682.614848 1024.54615,686.528939 1023.37322,691.759697 C1016.63482,721.983182 998.167051,741.110758 968.652139,748.938939 C974.33729,742.918182 977.915944,734.024697 977.915944,724.065909 C977.915944,705.895909 965.971142,691.161212 951.237623,691.161212 C936.504105,691.161212 924.559303,705.895909 924.559303,724.065909 C924.559303,738.166212 931.752515,750.135909 941.830194,754.82803 C935.522668,756.025 929.191205,757.126212 922.859742,758.191515 C907.659443,760.717121 894.709267,755.318788 884.787182,747.191364 C891.106676,733.079091 897.605702,720.48697 902.429104,707.272424 C906.199256,696.894697 901.519479,688.456061 892.662612,685.930455 C883.362902,683.261212 876.133783,688.444091 872.339692,699.396364 C869.70657,707.009091 866.032167,714.262727 862.058545,723.419545 C858.001143,717.350909 855.403926,713.472727 852.818678,709.594545 C846.906121,700.760909 838.767378,698.331061 830.86801,702.999242 C822.80108,707.739242 820.957894,716.836212 826.415639,726.100758 C829.814761,731.846212 833.584914,737.388182 837.331129,743.289242 C824.237328,750.746364 810.509184,752.517879 796.745134,753.463485 C807.301562,749.082576 814.925649,736.789697 814.925649,722.294394 C814.925649,704.112424 802.980847,689.389697 788.247329,689.389697 C773.525779,689.389697 761.569008,704.112424 761.569008,722.294394 C761.569008,737.84303 770.318157,750.854091 782.095397,754.277424 C761.545071,760.657273 743.651805,756.276364 729.600505,742.642879 C735.465188,731.391364 741.473495,721.324848 746.033585,710.647879 C750.043112,701.251667 745.913897,692.597576 737.571686,689.449545 C729.026006,686.229697 721.282231,690.191667 717.045297,699.695606 C714.711393,704.914394 712.042364,709.953636 708.750961,716.704545 C705.663026,711.00697 703.604403,707.176667 701.509874,703.346364 C696.159847,693.62697 688.033073,690.359242 679.535268,694.536667 C671.181088,698.642273 668.727496,707.583636 673.646648,717.422727 C677.04577,724.233485 680.923642,730.804848 685.411919,738.980152 C677.177426,741.649394 669.840589,745.611364 662.252408,746.185909 C655.023289,746.724545 647.806139,747.107576 640.565052,747.442727 C650.331544,742.547121 657.237506,730.745 657.237506,716.943939 C657.237506,698.773939 645.304673,684.051212 630.559186,684.051212 C615.813699,684.051212 603.880866,698.773939 603.880866,716.943939 C603.880866,731.355455 611.409203,743.588485 621.869881,748.029242 C614.95195,748.172879 608.034018,748.220758 601.128055,748.125 C589.829565,747.981364 580.458042,741.685303 573.408455,734.276061 C583.629758,721.27697 591.098252,707.45197 593.109,691.304848 C594.05453,683.704091 587.69913,676.725758 580.146855,675.744242 C572.067956,674.678939 566.287055,678.317727 563.235026,685.72697 C560.386466,692.645455 558.040593,699.755455 554.665409,709.03197 C550.955099,700.892576 548.262133,695.051364 545.640979,689.174242 C544.432136,686.481061 542.983919,684.242727 541.35617,682.447273 L541.35617,634.700152 L531.57771,634.700152 L531.57771,677.515758 C529.327587,677.396061 526.957777,677.791061 524.516154,678.820455 C515.898662,682.447273 512.726946,691.185152 516.951911,701.12 C521.200813,711.150606 525.97634,720.965758 531.230617,732.444697 C522.852499,735.413182 514.833444,739.387121 506.359576,740.991061 C501.105299,741.996515 495.791179,742.726667 490.453121,743.337121 C500.291425,738.501364 507.257232,726.639394 507.257232,712.778485 C507.257232,694.608485 495.31243,679.885758 480.578911,679.885758 C465.845393,679.885758 453.900591,694.608485 453.900591,712.778485 C453.900591,728.590455 462.948958,741.805 475.013447,744.95303 C472.272606,745.216364 469.519796,745.527576 466.778955,745.826818 L466.910611,745.838788 C445.785786,750.578788 428.514894,743.935606 415.863937,729.955 C421.405463,716.740455 427.174396,704.890455 431.327548,692.465909 C433.386171,686.301515 431.806298,680.663788 428.036145,676.857424 L558.770686,391.667424 C561.104591,386.532424 563.929213,384.880606 569.506646,385.227727 C618.710134,388.339848 658.566036,409.322727 686.860136,449.49303 C722.646668,500.340303 772.209218,519.048939 832.148665,516.439545 C837.773973,516.188182 840.957657,514.141364 843.542905,508.76697 C869.503101,454.604091 895.798422,400.584848 921.986024,346.517727 C923.087148,344.255455 923.865116,341.825606 924.954271,339.084545 C918.694621,339.084545 913.392469,339.096515 908.090317,339.084545 C851.430305,338.905 805.338689,318.676212 772.18528,270.737576 C750.330362,239.113636 719.534795,218.83697 681.546016,211.33197 C665.196718,208.100152 648.296858,207.729091 631.684247,206.065303 C590.727221,295.335303 470.52517,557.459697 417.958466,672.189242 C410.537848,671.459091 404.218353,676.139242 401.381762,684.589848 C399.622357,689.820606 397.659484,694.967576 395.373455,701.311515 C393.458456,698.019848 392.237645,696.032879 391.112584,693.99803 C387.928899,688.264545 383.620153,684.685606 378.940375,683.524545 L378.940375,639.416212 L369.161915,639.416212 L369.161915,684.661667 C368.922541,684.769394 368.695134,684.865152 368.467728,684.984848 C360.604267,689.210152 358.461862,698.402879 363.32117,708.158182 C366.301387,714.14303 369.616727,719.960303 373.698068,727.561061 C363.033921,731.319545 353.614523,735.832121 343.680469,737.890909 C340.963565,738.453485 338.222724,738.896364 335.457945,739.279394 C341.705627,733.258636 345.739092,723.910303 345.739092,713.35303 C345.739092,695.18303 333.79429,680.460303 319.060772,680.460303 C304.327253,680.460303 292.382451,695.18303 292.382451,713.35303 C292.382451,725.777576 297.971853,736.586212 306.218314,742.18803 C283.549522,747.981364 265.392944,739.614545 251.162113,722.222576 C242.975495,712.227879 236.596157,700.71303 229.785944,689.65303 C225.800354,683.177424 220.270796,679.586515 214.44202,679.718182 L214.44202,630.510758 L204.66356,630.510758 L204.66356,683.608333 C199.289596,688.276515 197.985003,696.056818 202.030437,704.076515 C205.752715,711.461818 209.88193,718.703485 214.430051,725.61 C228.565132,747.131515 245.895867,764.918485 271.628657,772.291818 C275.267154,773.333182 278.953526,774.195 282.556116,775.140606 C282.735647,777.594394 282.963053,779.365909 282.963053,781.113485 C283.118647,828.812727 283.262272,876.535909 283.381959,924.235152 C283.417866,937.868636 282.508241,951.573939 283.836771,965.087727 C284.339458,970.222727 288.947423,976.937727 293.495544,979.092273 C297.624759,981.043333 305.583971,979.403485 309.342155,976.315303 C312.90884,973.382727 314.632338,966.512121 314.728088,961.317273 C315.206838,934.648788 314.883682,907.980303 314.883682,881.311818 C314.883682,878.163788 315.194869,875.039697 315.350463,871.915606 L329.2342,871.915606 L329.2342,920.321061 C329.222232,935.139545 328.982857,949.97 329.258138,964.788485 C329.437669,974.304394 336.044413,980.863788 344.673874,981.019394 C353.279398,981.18697 359.874173,974.651515 360.520485,965.219394 C360.700016,962.550152 360.592298,959.880909 360.592298,957.223636 C360.56836,896.453485 360.520485,835.719242 360.496548,774.961061 L360.496548,767.48 C370.622102,762.35697 379.514875,757.712727 388.587179,753.403636 C390.286741,752.613636 393.506331,752.326364 394.583518,753.343788 C408.515131,766.450606 424.613085,775.236364 443.954568,778.276667 L443.954568,789.6 C444.002443,850.346212 444.026381,911.104394 444.098193,971.862576 C444.110162,985.11303 449.579876,992.127273 459.825117,992.282879 C470.166108,992.450455 475.743541,985.496061 475.779447,972.293485 C475.815353,958.959242 475.791415,945.61303 475.791415,932.290758 L475.791415,890.648182 L490.08209,890.648182 L490.08209,897.375152 C490.070122,921.673636 489.986341,945.972121 490.094059,970.270606 C490.141934,980.492727 496.293866,987.291515 505.294358,987.638636 C514.534225,988.009697 521.248688,981.031364 521.727438,970.51 C521.811219,968.738485 521.763344,966.955 521.763344,965.171515 C521.751375,904.425303 521.978781,843.667121 521.452157,782.920909 C521.380344,773.357121 522.756749,767.348333 533.049865,765.241667 C537.238924,764.379848 541.272389,761.806364 544.898917,759.328636 C549.040101,756.479848 551.625349,757.425455 555.718658,760.130606 C564.994431,766.28303 574.78486,771.848939 584.94632,776.385455 C589.769722,778.55197 591.050377,780.383333 590.368159,785.386667 C582.229416,845.486515 583.438258,905.957424 583.629758,966.380455 C583.665665,978.230455 589.482472,985.041212 599.09337,985.148939 C609.003486,985.256667 614.892106,978.206515 614.987856,965.901667 C615.083606,953.453182 615.011793,941.016667 615.011793,928.568182 L615.011793,877.840606 C620.64907,878.475 625.38869,879.001667 630.511311,879.588182 L630.511311,890.372879 C630.535248,917.340606 630.415561,944.308333 630.607061,971.276061 C630.678873,980.887727 637.058211,987.267576 645.879172,987.495 C654.604384,987.722424 661.175222,981.486212 662.048939,971.994242 C662.240439,969.935455 662.025002,967.840758 662.060908,965.75803 C662.80297,920.153485 663.18597,874.560909 664.454656,828.956364 C664.957343,811.624242 667.470778,794.34 668.966871,778.288636 C681.988859,773.057879 693.694287,768.365758 706.046026,763.446212 C719.235577,776.385455 735.429281,784.979697 754.818639,787.912273 L754.818639,797.392273 C754.854546,833.241515 754.902421,869.090758 754.926358,904.95197 C754.938327,928.963182 754.794702,952.962424 754.974233,976.961667 C755.058014,987.351364 761.17404,993.635455 770.521626,993.767121 C779.665743,993.898788 785.937362,987.48303 786.559736,977.272879 C786.679424,975.190152 786.583674,973.119394 786.583674,971.036667 C786.583674,945.553182 786.583674,920.057727 786.559736,894.574242 L786.559736,885.237879 L800.934193,885.237879 L800.934193,895.340303 C800.898286,922.607273 800.742693,949.874242 800.898286,977.141212 C800.95813,988.344848 808.857498,995.191515 819.162583,993.599545 C827.7322,992.294848 832.052915,985.92697 832.052915,974.316364 C832.064884,912.672424 832.028978,851.028485 831.993072,789.396515 L831.993072,780.203788 C840.45497,776.193939 848.091026,772.327727 855.978426,769.06 C857.869486,768.27 860.861671,768.988182 862.908326,769.945758 C865.541448,771.166667 867.51629,773.823939 870.149413,774.99697 C883.997245,781.089545 897.988701,786.894848 914.337999,793.813333 C916.109373,827.53197 918.515089,864.159242 919.795745,900.822424 C920.645525,924.785758 919.783776,948.820909 919.951338,972.820152 C920.023151,982.587424 926.210989,988.907424 935.079825,989.075 C943.888817,989.266515 950.351936,983.006364 951.046123,973.478485 C951.261561,970.52197 951.153842,967.553485 951.141873,964.59697 C951.129905,940.885 951.046123,917.17303 951.058092,893.47303 C951.058092,890.33697 951.357311,887.212879 951.560779,883.657879 L965.504361,883.657879 L965.504361,899.038939 C965.480423,923.636667 965.241048,948.222424 965.576173,972.820152 C965.707829,983.078182 972.565917,989.326364 981.769878,989.06303 C990.219808,988.811667 996.922302,982.563485 996.766708,973.526364 C995.952834,924.378788 995.019272,875.231212 993.606961,826.107576 C993.116243,809.062727 991.153369,792.053788 989.872714,775.248333 C994.56446,772.914242 998.633832,771.106818 1002.4758,768.916364 C1030.67415,752.865 1047.87323,728.817879 1053.90547,696.978485 C1056,686.11 1050.96116,678.377576 1041.78114,677.001061 L1041.78114,677.001061 Z" id="Shape" fill="#4C478B"></path>
                    <rect id="Rectangle-path" fill="#4C478B" x="144.879706" y="416.70803" width="141.374751" height="208.96697"></rect>
                    <rect id="Rectangle-path" fill="#4C478B" x="330.933761" y="500.292424" width="94.2418548" height="134.000758"></rect>
                    <path d="M851.119117,520.293788 C848.270557,526.242727 844.739779,528.51697 838.492097,528.780303 C783.232427,531.198182 735.943937,517.229545 698.769032,480.051667 L523.426999,480.051667 L523.426999,629.672879 L1044.46214,629.672879 L1044.46214,480.051667 L870.472569,480.051667 C864.00945,493.457727 857.558299,506.863788 851.119117,520.293788 L851.119117,520.293788 Z" id="Shape" fill="#4C478B"></path>
                </g>
            </g>
        </g>
    </g>
</svg>