<?xml version="1.0" encoding="UTF-8" standalone="no"?>
<!-- Generator: Adobe Illustrator 16.0.0, SVG Export Plug-In . SVG Version: 6.00 Build 0)  -->

<svg
   xmlns:dc="http://purl.org/dc/elements/1.1/"
   xmlns:cc="http://creativecommons.org/ns#"
   xmlns:rdf="http://www.w3.org/1999/02/22-rdf-syntax-ns#"
   xmlns:svg="http://www.w3.org/2000/svg"
   xmlns="http://www.w3.org/2000/svg"
   xmlns:sodipodi="http://sodipodi.sourceforge.net/DTD/sodipodi-0.dtd"
   xmlns:inkscape="http://www.inkscape.org/namespaces/inkscape"
   version="1.1"
   id="Layer_1"
   x="0px"
   y="0px"
   width="538px"
   height="540px"
   viewBox="151.445 26.14 538 540"
   enable-background="new 151.445 26.14 538 540"
   xml:space="preserve"
   inkscape:version="0.91 r13725"
   sodipodi:docname="socialmoodHappy.svg"><metadata
     id="metadata11"><rdf:RDF><cc:Work
         rdf:about=""><dc:format>image/svg+xml</dc:format><dc:type
           rdf:resource="http://purl.org/dc/dcmitype/StillImage" /></cc:Work></rdf:RDF></metadata><defs
     id="defs9" /><sodipodi:namedview
     pagecolor="#ffffff"
     bordercolor="#666666"
     borderopacity="1"
     objecttolerance="10"
     gridtolerance="10"
     guidetolerance="10"
     inkscape:pageopacity="0"
     inkscape:pageshadow="2"
     inkscape:window-width="1366"
     inkscape:window-height="705"
     id="namedview7"
     showgrid="false"
     inkscape:zoom="0.43703704"
     inkscape:cx="-68.5"
     inkscape:cy="270"
     inkscape:window-x="-8"
     inkscape:window-y="-8"
     inkscape:window-maximized="1"
     inkscape:current-layer="Layer_1" /><g
     id="g3"
     transform="translate(-686.44068,-244.83051)"><path
       d="m 420.945,47.623 c -135.521,0 -250.018,114.49 -250.018,250.018 0,135.528 114.496,250.018 250.018,250.018 135.522,0 250.018,-114.49 250.018,-250.018 0,-135.528 -114.497,-250.018 -250.018,-250.018 z m 89.256,204.502 c 11.526,0 20.87,9.345 20.87,20.871 0,11.526 -9.344,20.87 -20.87,20.87 -11.527,0 -20.871,-9.344 -20.871,-20.87 0,-11.526 9.344,-20.871 20.871,-20.871 z m -175.572,0 c 11.526,0 20.87,9.345 20.87,20.871 0,11.526 -9.344,20.87 -20.87,20.87 -11.526,0 -20.87,-9.344 -20.87,-20.87 0,-11.526 9.344,-20.871 20.87,-20.871 z M 540.4,386.963 c -23.431,40.365 -69.207,65.444 -119.455,65.444 -50.253,0 -96.03,-25.079 -119.461,-65.451 -3.298,-5.685 -1.369,-12.965 4.322,-16.269 5.679,-3.304 12.965,-1.369 16.269,4.321 19.192,33.057 57.076,53.588 98.87,53.588 41.795,0 79.672,-20.531 98.858,-53.588 3.304,-5.685 10.59,-7.619 16.274,-4.321 5.686,3.298 7.621,10.584 4.323,16.276 z"
       id="path5"
       inkscape:connector-curvature="0"
       style="fill:#4c498b" /></g><path
     style="fill:#000000"
     d="m 169.81972,260.26502 c -11.87079,-11.87079 -3.66145,-33.28197 12.76076,-33.28197 8.44877,0 20.52121,10.73202 20.52121,18.2427 0,6.63059 -5.8758,17.4985 -10.39912,19.23426 -7.95993,3.05451 -17.35585,1.33201 -22.88285,-4.19499 z"
     id="path3343"
     inkscape:connector-curvature="0"
     transform="translate(151.44501,26.139999)" /><path
     style="fill:#000000"
     d="m 344.90733,260.09846 c -17.02758,-18.12503 7.84129,-43.9152 26.70236,-27.69159 13.31624,11.45414 4.82058,33.47449 -12.91477,33.47449 -5.97745,0 -9.90075,-1.64555 -13.78759,-5.7829 z"
     id="path3345"
     inkscape:connector-curvature="0"
     transform="translate(151.44501,26.139999)" /><path
     style="fill:#000000"
     d="m 250.00847,423.86591 c -19.21853,-3.0697 -31.33739,-7.02703 -47.6419,-15.55711 -34.60518,-18.10452 -60.95673,-51.97116 -48.4895,-62.31804 5.67008,-4.70575 13.34905,-0.65767 21.39224,11.27725 13.25702,19.6715 38.59849,36.23419 64.94256,42.44521 47.05624,11.09423 99.355,-6.75397 123.14523,-42.02625 8.30833,-12.31823 15.95872,-16.44536 21.6811,-11.69621 17.21332,14.2858 -33.039,62.57799 -77.04546,74.04022 -16.54527,4.3095 -43.74897,6.10868 -57.98427,3.83493 z"
     id="path3347"
     inkscape:connector-curvature="0"
     transform="translate(151.44501,26.139999)" /><ellipse
     style="fill:none;stroke:#000000;stroke-width:10.77399731;stroke-miterlimit:4;stroke-dasharray:none;stroke-opacity:1"
     id="path3349"
     cx="420.30093"
     cy="300.71625"
     rx="244.29942"
     ry="247.73161" /></svg>