<?xml version="1.0" encoding="UTF-8" standalone="no"?>
<!-- Generator: Adobe Illustrator 16.0.0, SVG Export Plug-In . SVG Version: 6.00 Build 0)  -->

<svg
   xmlns:dc="http://purl.org/dc/elements/1.1/"
   xmlns:cc="http://creativecommons.org/ns#"
   xmlns:rdf="http://www.w3.org/1999/02/22-rdf-syntax-ns#"
   xmlns:svg="http://www.w3.org/2000/svg"
   xmlns="http://www.w3.org/2000/svg"
   xmlns:sodipodi="http://sodipodi.sourceforge.net/DTD/sodipodi-0.dtd"
   xmlns:inkscape="http://www.inkscape.org/namespaces/inkscape"
   version="1.1"
   id="Layer_1"
   x="0px"
   y="0px"
   width="552px"
   height="548px"
   viewBox="139.445 26.14 552 548"
   enable-background="new 139.445 26.14 552 548"
   xml:space="preserve"
   inkscape:version="0.91 r13725"
   sodipodi:docname="socialmoodSad.svg"><metadata
     id="metadata11"><rdf:RDF><cc:Work
         rdf:about=""><dc:format>image/svg+xml</dc:format><dc:type
           rdf:resource="http://purl.org/dc/dcmitype/StillImage" /><dc:title></dc:title></cc:Work></rdf:RDF></metadata><defs
     id="defs9" /><sodipodi:namedview
     pagecolor="#ffffff"
     bordercolor="#666666"
     borderopacity="1"
     objecttolerance="10"
     gridtolerance="10"
     guidetolerance="10"
     inkscape:pageopacity="0"
     inkscape:pageshadow="2"
     inkscape:window-width="1366"
     inkscape:window-height="705"
     id="namedview7"
     showgrid="false"
     inkscape:zoom="0.43065693"
     inkscape:cx="276"
     inkscape:cy="274"
     inkscape:window-x="-8"
     inkscape:window-y="-8"
     inkscape:window-maximized="1"
     inkscape:current-layer="Layer_1" /><g
     id="g3"
     transform="translate(1010.0847,37.152542)"><path
       d="m 420.945,47.623 c -135.521,0 -250.018,114.49 -250.018,250.018 0,135.528 114.496,250.018 250.018,250.018 135.522,0 250.018,-114.49 250.018,-250.018 0,-135.528 -114.497,-250.018 -250.018,-250.018 z m 89.256,204.502 c 11.526,0 20.87,9.345 20.87,20.871 0,11.526 -9.344,20.87 -20.87,20.87 -11.527,0 -20.871,-9.344 -20.871,-20.87 0,-11.526 9.344,-20.871 20.871,-20.871 z m -175.572,0 c 11.526,0 20.87,9.345 20.87,20.871 0,11.526 -9.344,20.87 -20.87,20.87 -11.526,0 -20.87,-9.344 -20.87,-20.87 0,-11.526 9.344,-20.871 20.87,-20.871 z m 201.443,168.911 c -5.69,3.292 -12.965,1.363 -16.269,-4.321 -19.187,-33.057 -57.076,-53.588 -98.87,-53.588 -41.795,0 -79.672,20.531 -98.858,53.588 -2.208,3.81 -6.209,5.929 -10.31,5.929 -2.03,0 -4.084,-0.518 -5.965,-1.613 -5.686,-3.298 -7.62,-10.584 -4.322,-16.269 23.437,-40.366 69.207,-65.445 119.455,-65.445 50.253,0 96.03,25.073 119.461,65.445 3.298,5.684 1.369,12.97 -4.322,16.274 z"
       id="path5"
       inkscape:connector-curvature="0"
       style="fill:#4c498b" /></g><path
     style="fill:#000000"
     d="m 164.1526,390.29953 c -4.28781,-6.12172 -3.16133,-9.36173 8.70092,-25.02577 17.25229,-22.78154 47.717,-41.13479 79.43285,-47.85377 45.77215,-9.69679 94.20419,4.06543 126.59769,35.97339 23.46918,23.11741 28.46274,37.44494 14.29034,41.00198 -4.75575,1.19362 -7.0797,0.24637 -10.87489,-4.43267 -2.65464,-3.27288 -8.19169,-10.11595 -12.30453,-15.20682 -18.44783,-22.83467 -52.52877,-37.75785 -86.56447,-37.9044 -39.14886,-0.16856 -71.93317,14.32044 -92.84111,41.03106 -12.75498,16.29494 -13.8553,17.32764 -18.46212,17.32764 -2.49432,0 -6.08293,-2.20979 -7.97468,-4.91064 z"
     id="path3341"
     inkscape:connector-curvature="0"
     transform="translate(139.44501,26.139999)" /><path
     style="fill:#000000"
     d="m 321.37493,285.82877 c -11.87079,-11.87079 -3.66145,-33.28197 12.76076,-33.28197 8.44877,0 20.52121,10.73202 20.52121,18.2427 0,6.63059 -5.8758,17.4985 -10.39912,19.23426 -7.95993,3.05451 -17.35585,1.33201 -22.88285,-4.19499 z"
     id="path3343"
     inkscape:connector-curvature="0" /><path
     style="fill:#000000"
     d="m 496.46254,285.66221 c -17.02758,-18.12503 7.84129,-43.9152 26.70236,-27.69159 13.31624,11.45414 4.82058,33.47449 -12.91477,33.47449 -5.97745,0 -9.90075,-1.64555 -13.78759,-5.7829 z"
     id="path3345"
     inkscape:connector-curvature="0" /><ellipse
     style="fill:none;stroke:#000000;stroke-width:10.77399731;stroke-miterlimit:4;stroke-dasharray:none;stroke-opacity:1"
     id="path3349"
     cx="420.4111"
     cy="300.13998"
     rx="244.29942"
     ry="247.73161" /></svg>