<?xml version="1.0" encoding="utf-8"?>
<!-- Generator: Adobe Illustrator 16.0.0, SVG Export Plug-In . SVG Version: 6.00 Build 0)  -->
<!DOCTYPE svg PUBLIC "-//W3C//DTD SVG 1.1//EN" "http://www.w3.org/Graphics/SVG/1.1/DTD/svg11.dtd">
<svg version="1.1" id="Layer_1" xmlns="http://www.w3.org/2000/svg" xmlns:xlink="http://www.w3.org/1999/xlink" x="0px" y="0px"
	 width="596.845px" height="595.281px" viewBox="245.044 0 596.845 595.281" enable-background="new 245.044 0 596.845 595.281"
	 xml:space="preserve">
<g>
	<g>
		<path fill="#4C498B" d="M565.066,50.002c-0.143-0.09-0.304-0.167-0.446-0.274c-1.994-1.279-4.096-2.405-6.298-3.31
			c-0.179-0.071-0.363-0.131-0.518-0.196c-2.161-0.857-4.411-1.548-6.757-2c-0.143-0.03-0.268-0.042-0.398-0.065
			c-2.322-0.423-4.691-0.679-7.145-0.691c-0.012,0-0.023,0-0.047,0c-2.441,0.013-4.828,0.263-7.132,0.691
			c-0.154,0.023-0.262,0.035-0.411,0.065c-2.345,0.452-4.583,1.143-6.744,2c-0.19,0.06-0.352,0.125-0.518,0.196
			c-2.227,0.904-4.328,2.03-6.311,3.31c-0.166,0.107-0.304,0.185-0.435,0.274c-2.166,1.434-4.185,3.065-5.994,4.887
			c-0.012,0.012-0.012,0.012-0.012,0.012L321.078,249.706c-15.245,15.245-15.245,39.938,0,55.177
			c15.245,15.238,39.932,15.238,55.17,0l128.207-128.212v336.125c0,21.549,17.483,39.021,39.021,39.021
			c21.556,0,39.009-17.472,39.009-39.021V176.671l128.212,128.212c15.245,15.238,39.949,15.238,55.17,0
			c7.614-7.62,11.424-17.608,11.424-27.579c0-9.989-3.81-19.972-11.424-27.598L571.048,54.9c0,0,0,0,0-0.012
			C569.227,53.067,567.221,51.436,565.066,50.002z"/>
	</g>
</g>
</svg>
