<?xml version="1.0" encoding="utf-8"?>
<!-- Generator: Adobe Illustrator 16.0.0, SVG Export Plug-In . SVG Version: 6.00 Build 0)  -->
<!DOCTYPE svg PUBLIC "-//W3C//DTD SVG 1.1//EN" "http://www.w3.org/Graphics/SVG/1.1/DTD/svg11.dtd">
<svg version="1.1" id="Layer_1" xmlns="http://www.w3.org/2000/svg" xmlns:xlink="http://www.w3.org/1999/xlink" x="0px" y="0px"
	 width="841.889px" height="595.281px" viewBox="0 0 841.889 595.281" enable-background="new 0 0 841.889 595.281"
	 xml:space="preserve">
<g>
	<path fill="#4C498B" d="M398.875,71.097L275.403,207.356H157.089c-25.422,0-33.784,15.156-33.784,29.591v116.754
		c0,14.435,8.362,32.638,33.784,32.638h118.893l123.444,138.395c5.377,3.067,11.377,4.752,17.385,4.752
		c6,0,10.929-1.47,16.298-4.544c10.762-6.143,16.306-17.417,16.306-29.716V99.064c0-12.292-5.544-23.645-16.306-29.787
		S409.644,64.955,398.875,71.097z"/>
	<path fill="#4C498B" d="M552.893,400.425c54.521-55.37,54.522-145.422,0.005-200.788c-8.876-9.005-23.294-9.005-32.159,0.001
		c-8.822,8.951-8.822,23.439,0,32.402c36.889,37.474,36.889,98.504,0,135.985c-8.823,8.952-8.822,23.442,0.003,32.396
		c4.277,4.346,10.039,6.755,16.077,6.755C542.846,407.177,548.609,404.766,552.893,400.425z"/>
	<path fill="#4C498B" d="M684.843,300.032c0-53.78-20.658-104.401-58.15-142.479c-8.863-9.016-23.287-9.015-32.153,0.003
		c-8.821,8.949-8.82,23.439,0.005,32.395c28.971,29.43,44.914,68.503,44.914,110.082c0,41.568-15.952,80.662-44.916,110.077
		c-8.823,8.952-8.823,23.44,0,32.403c4.289,4.347,10.051,6.757,16.079,6.757c6.037,0,11.81-2.416,16.077-6.763
		C664.185,404.426,684.843,353.804,684.843,300.032z"/>
</g>
</svg>
