<?xml version="1.0" encoding="utf-8"?>
<!-- Generator: Adobe Illustrator 16.0.0, SVG Export Plug-In . SVG Version: 6.00 Build 0)  -->
<!DOCTYPE svg PUBLIC "-//W3C//DTD SVG 1.1//EN" "http://www.w3.org/Graphics/SVG/1.1/DTD/svg11.dtd">
<svg version="1.1" id="Layer_1" xmlns="http://www.w3.org/2000/svg" xmlns:xlink="http://www.w3.org/1999/xlink" x="0px" y="0px"
	 width="841.889px" height="595.281px" viewBox="0 0 841.889 595.281" enable-background="new 0 0 841.889 595.281"
	 xml:space="preserve">
<g>
	<path fill="#FFFFFF" d="M398.875,71.097L275.403,207.356H157.089c-25.422,0-33.784,15.156-33.784,29.591v116.754
		c0,14.436,8.362,32.639,33.784,32.639h118.893l123.444,138.395c5.377,3.067,11.377,4.752,17.385,4.752
		c6,0,10.929-1.47,16.298-4.544c10.762-6.143,16.306-17.417,16.306-29.716V99.064c0-12.292-5.544-23.646-16.306-29.787
		S409.644,64.955,398.875,71.097z"/>
	<path fill="#FFFFFF" d="M711.892,231.799c8.344-8.313,8.344-21.774,0-30.082c-8.354-8.307-21.875-8.307-30.219,0l-64.843,56.358
		l-64.824-56.358c-8.346-8.307-21.875-8.307-30.22,0c-8.354,8.308-8.354,21.769,0,30.082l56.628,64.534l-56.628,64.511
		c-8.354,8.313-8.354,21.774,0,30.09c4.177,4.148,9.642,6.231,15.113,6.231c5.465,0,10.938-2.083,15.105-6.231l64.824-56.357
		l64.843,56.357c4.168,4.148,9.632,6.231,15.104,6.231c5.465,0,10.938-2.083,15.114-6.231c8.344-8.314,8.344-21.775,0-30.09
		l-56.629-64.511L711.892,231.799z"/>
</g>
</svg>
