<?xml version="1.0" encoding="utf-8"?>
<!-- Generator: Adobe Illustrator 16.0.0, SVG Export Plug-In . SVG Version: 6.00 Build 0)  -->
<!DOCTYPE svg PUBLIC "-//W3C//DTD SVG 1.1//EN" "http://www.w3.org/Graphics/SVG/1.1/DTD/svg11.dtd">
<svg version="1.1" id="Layer_1" xmlns="http://www.w3.org/2000/svg" xmlns:xlink="http://www.w3.org/1999/xlink" x="0px" y="0px"
	 width="841.889px" height="595.281px" viewBox="0 0 841.889 595.281" enable-background="new 0 0 841.889 595.281"
	 xml:space="preserve">
<g>
	<path fill="#4C498B" d="M398.875,71.097L275.403,207.356H157.089c-25.422,0-33.784,15.156-33.784,29.591v116.754
		c0,14.435,8.362,32.638,33.784,32.638h118.893l123.444,138.395c5.377,3.067,11.377,4.752,17.385,4.752
		c6,0,10.929-1.47,16.298-4.544c10.762-6.143,16.306-17.417,16.306-29.716V99.064c0-12.292-5.544-23.645-16.306-29.787
		S409.644,64.955,398.875,71.097z"/>
	<path fill="#4C498B" d="M711.892,231.799c8.344-8.314,8.344-21.775,0-30.082c-8.353-8.307-21.875-8.307-30.219,0l-64.842,56.358
		l-64.825-56.358c-8.345-8.307-21.875-8.307-30.219,0c-8.354,8.307-8.354,21.768,0,30.082l56.628,64.534l-56.628,64.51
		c-8.354,8.314-8.354,21.775,0,30.09c4.176,4.149,9.641,6.232,15.113,6.232c5.465,0,10.938-2.083,15.105-6.232l64.825-56.357
		l64.842,56.357c4.168,4.149,9.632,6.232,15.104,6.232c5.465,0,10.938-2.083,15.114-6.232c8.344-8.314,8.344-21.775,0-30.09
		l-56.629-64.51L711.892,231.799z"/>
</g>
</svg>
