<?xml version="1.0" encoding="utf-8"?>
<!-- Generator: Adobe Illustrator 16.0.0, SVG Export Plug-In . SVG Version: 6.00 Build 0)  -->
<!DOCTYPE svg PUBLIC "-//W3C//DTD SVG 1.1//EN" "http://www.w3.org/Graphics/SVG/1.1/DTD/svg11.dtd">
<svg version="1.1" id="Layer_1" xmlns="http://www.w3.org/2000/svg" xmlns:xlink="http://www.w3.org/1999/xlink" x="0px" y="0px"
	 width="493px" height="493.141px" viewBox="228.445 0 493 493.141" enable-background="new 228.445 0 493 493.141"
	 xml:space="preserve">
<g>
	<path fill="#FFFFFF" d="M449.302,370.972c0,23.953-19.418,43.377-43.377,43.377l0,0c-23.954,0-43.384-19.424-43.384-43.377V122.168
		c0-23.954,19.43-43.378,43.384-43.378l0,0c23.959,0,43.377,19.424,43.377,43.378V370.972z"/>
	<path fill="#FFFFFF" d="M587.349,370.972c0,23.953-19.432,43.377-43.379,43.377l0,0c-23.961,0-43.379-19.424-43.379-43.377V122.168
		c0-23.954,19.418-43.378,43.379-43.378l0,0c23.947,0,43.379,19.424,43.379,43.378V370.972z"/>
</g>
</svg>
