<?xml version="1.0" encoding="utf-8"?>
<!-- Generator: Adobe Illustrator 16.0.0, SVG Export Plug-In . SVG Version: 6.00 Build 0)  -->
<!DOCTYPE svg PUBLIC "-//W3C//DTD SVG 1.1//EN" "http://www.w3.org/Graphics/SVG/1.1/DTD/svg11.dtd">
<svg version="1.1" id="Layer_1" xmlns="http://www.w3.org/2000/svg" xmlns:xlink="http://www.w3.org/1999/xlink" x="0px" y="0px"
	 width="594.444px" height="595.281px" viewBox="247.445 0 594.444 595.281" enable-background="new 247.445 0 594.444 595.281"
	 xml:space="preserve">
<path fill="#FFFFFF" d="M702.941,142.004L589.32,226.457c0,0-9.854,7.149-13.049,6.852c-7.078-0.644-4.924-11.822-4.924-11.822
	v-53.027c0-45.599-41.568-46.783-64.164-26.449L340.54,265.864c0,0-18.317,15.138-18.317,31.771
	c0,17.478,18.317,31.782,18.317,31.782l166.637,123.859c22.596,20.329,64.164,19.156,64.164-26.437v-57.635
	c0,0-0.971-10.572,2.459-10.572c2.75,0,10.154,6.215,10.154,6.215l118.98,88.429c22.596,20.329,64.176,19.156,64.176-26.437V297.635
	V168.452C767.116,122.854,725.536,121.67,702.941,142.004z"/>
</svg>
